<?xml version="1.0" encoding="UTF-8"?>
<svg width="30px" height="30px" viewBox="0 0 30 30" version="1.1" xmlns="http://www.w3.org/2000/svg" xmlns:xlink="http://www.w3.org/1999/xlink">
    <!-- Generator: Sketch 51.2 (57519) - http://www.bohemiancoding.com/sketch -->
    <title>icon_info</title>
    <desc>Created with Sketch.</desc>
    <defs></defs>
    <g id="Page-1" stroke="none" stroke-width="1" fill="none" fill-rule="evenodd">
        <g id="icon_info" transform="translate(1.000000, 1.000000)" fill-rule="nonzero">
            <circle id="Oval" stroke="#0397D5" stroke-width="2.5" fill="#FFFFFF" cx="14" cy="14" r="13.5"></circle>
            <path d="M14,7 C10.1,7 7,10.1 7,14 C7,17.9 10.1,21 14,21 C17.9,21 21,17.9 21,14 C21,10.1 17.9,7 14,7 Z M15.5,17.8 C15.1,17.9 14.9,18.1 14.6,18.1 C14.4,18.2 14.1,18.2 13.9,18.2 C13.5,18.2 13.1,18.1 12.9,17.9 C12.7,17.7 12.5,17.4 12.5,17.1 C12.5,17 12.5,16.8 12.5,16.7 C12.5,16.6 12.5,16.4 12.6,16.3 L13.1,14.7 C13.1,14.5 13.2,14.4 13.2,14.3 C13.2,14.2 13.2,14 13.2,13.9 C13.2,13.7 13.2,13.6 13.1,13.5 C13,13.4 12.9,13.4 12.6,13.4 C12.5,13.4 12.4,13.4 12.2,13.5 C12.1,13.5 12,13.6 11.9,13.6 L12,13 C12.3,12.9 12.6,12.8 12.8,12.7 C13.1,12.6 13.3,12.6 13.6,12.6 C14,12.6 14.4,12.7 14.6,12.9 C14.8,13.1 15,13.4 15,13.7 C15,13.8 15,13.9 15,14.1 C15,14.3 15,14.4 14.9,14.6 L14.5,16.2 C14.5,16.3 14.4,16.5 14.4,16.6 C14.4,16.8 14.4,16.9 14.4,17 C14.4,17.2 14.4,17.4 14.5,17.4 C14.6,17.5 14.8,17.5 15,17.5 C15.1,17.5 15.2,17.5 15.4,17.4 C15.5,17.4 15.6,17.3 15.7,17.3 L15.5,17.8 Z M15.4,11.4 C15.2,11.6 14.9,11.7 14.6,11.7 C14.3,11.7 14.1,11.6 13.8,11.4 C13.6,11.2 13.5,11 13.5,10.7 C13.5,10.4 13.6,10.2 13.8,10 C14,9.8 14.3,9.7 14.6,9.7 C14.9,9.7 15.1,9.8 15.4,10 C15.6,10.2 15.7,10.4 15.7,10.7 C15.7,11 15.6,11.2 15.4,11.4 Z" id="Shape" fill="#0397D5"></path>
        </g>
    </g>
</svg>