<?xml version="1.0" encoding="utf-8"?>
<!-- Generator: Adobe Illustrator 18.1.1, SVG Export Plug-In . SVG Version: 6.00 Build 0)  -->
<svg version="1.1" id="Layer_1" xmlns="http://www.w3.org/2000/svg" xmlns:xlink="http://www.w3.org/1999/xlink" x="0px" y="0px"
	 viewBox="0 0 81 108" enable-background="new 0 0 81 108" xml:space="preserve">
<path d="M63.5,62.6c-0.8-4.8-3.2-7.3-5.1-8.5c-1.8-1.2-3.8-1.7-5.3-1.9c-1.9-2.6-4.7-4-7.9-4c-0.7,0-1.4,0.1-2.1,0.2
	c-1.9-2.2-4.5-3.3-7.5-3.3c-0.1,0-0.1,0-0.2,0l0-10.6c0-2.4-1-4.6-2.7-6.1c-1.2-1-2.7-1.7-4.3-2c0.4-2.1,1.1-3.6,2.2-4.5
	c1.4-1.1,3.5-1.2,6.5-0.5c5.9,1.5,12,1.9,15.9-4.8c0.5-0.8,0.2-1.9-0.6-2.4c-0.8-0.5-1.9-0.2-2.4,0.6c-2.3,4-5.5,4.8-12,3.1
	c-4-1-7.2-0.6-9.5,1.1c-2,1.5-3.1,4-3.6,7.4c-1.4,0.4-2.7,1.1-3.7,2.1c-1.5,1.5-2.3,3.5-2.3,5.8l0,14.7l0,10.4
	c-2.2,1.2-3.7,3-4.4,5.4c-1.1,3.7-0.2,8.4,2.7,14.5c1.9,4,4.2,7.5,5.3,9.1l0.5,6.4c0.2,2.8,2.6,5.1,5.5,5.1l22.9,0
	c2.8,0,5.1-2.1,5.5-4.8l0.9-6.7C63,80.1,65,71.3,63.5,62.6z M54.5,86.9c-0.2,0.3-0.3,0.5-0.3,0.8l-0.9,7c-0.1,1-1,1.8-2,1.8
	l-22.9,0.1c0,0,0,0,0,0c-1.1,0-2-0.8-2-1.9l-0.5-6.8c0-0.4-0.1-0.7-0.4-1c-2.1-3-13.8-20.7-4.3-24.6c0.8-0.3,1.2-1,1.2-1.9
	c0-4.8,0-20.7,0-26c0-3.2,2.4-4.7,4.8-4.7c2.4,0,4.8,1.6,4.8,4.7l0,12.2c0,1.1,0.9,2,2,2c0.1,0,0.2,0,0.3,0c0.4-0.1,0.8-0.1,1.3-0.1
	c1.7,0,3.7,0.6,5.3,2.7c0.4,0.5,1,0.8,1.6,0.8c0.2,0,0.4,0,0.5-0.1c0.6-0.2,1.4-0.3,2.2-0.3c1.8,0,3.9,0.6,5.5,3.1
	c0.3,0.5,0.8,0.8,1.4,0.8c2.1,0.1,6.9,1,8,7.6C61.1,69.3,60.6,77.5,54.5,86.9z"/>
</svg>
